<?xml version="1.0" encoding="UTF-8" standalone="no"?>
<!-- Generator: Adobe Illustrator 17.0.2, SVG Export Plug-In . SVG Version: 6.00 Build 0)  -->

<svg
   xmlns:dc="http://purl.org/dc/elements/1.1/"
   xmlns:cc="http://creativecommons.org/ns#"
   xmlns:rdf="http://www.w3.org/1999/02/22-rdf-syntax-ns#"
   xmlns:svg="http://www.w3.org/2000/svg"
   xmlns="http://www.w3.org/2000/svg"
   xmlns:sodipodi="http://sodipodi.sourceforge.net/DTD/sodipodi-0.dtd"
   xmlns:inkscape="http://www.inkscape.org/namespaces/inkscape"
   version="1.1"
   id="Layer_1"
   x="0px"
   y="0px"
   width="18px"
   height="72px"
   viewBox="0 0 18 72"
   style="enable-background:new 0 0 18 72;"
   xml:space="preserve"
   inkscape:version="0.48.2 r9819"
   sodipodi:docname="sprite.svg"><metadata
   id="metadata51"><rdf:RDF><cc:Work
       rdf:about=""><dc:format>image/svg+xml</dc:format><dc:type
         rdf:resource="http://purl.org/dc/dcmitype/StillImage" /></cc:Work></rdf:RDF></metadata><defs
   id="defs49" /><sodipodi:namedview
   pagecolor="#ffffff"
   bordercolor="#666666"
   borderopacity="1"
   objecttolerance="10"
   gridtolerance="10"
   guidetolerance="10"
   inkscape:pageopacity="0"
   inkscape:pageshadow="2"
   inkscape:window-width="1440"
   inkscape:window-height="838"
   id="namedview47"
   showgrid="false"
   inkscape:snap-bbox="true"
   inkscape:snap-bbox-midpoints="true"
   inkscape:snap-bbox-edge-midpoints="true"
   inkscape:zoom="11.313708"
   inkscape:cx="9.3976754"
   inkscape:cy="14.121906"
   inkscape:window-x="-8"
   inkscape:window-y="-8"
   inkscape:window-maximized="1"
   inkscape:current-layer="Layer_1" />
<style
   type="text/css"
   id="style3">
	.st0{fill:#3E3E3E;}
</style>


<g
   id="g13">
	<path
   class="st0"
   d="M14.5,44l-1.7-0.3c-0.2,0-0.2-0.2-0.1-0.3l1-1.5c0.1-0.1,0.1-0.4,0-0.5l-0.9-0.9c-0.1-0.1-0.3-0.1-0.5,0   l-1.5,1c-0.1,0.1-0.3,0-0.3-0.1L10,39.5c0-0.2-0.2-0.3-0.4-0.3H8.3c-0.2,0-0.3,0.1-0.4,0.3l-0.3,1.7c0,0.2-0.2,0.2-0.3,0.1l-1.5-1   c-0.1-0.1-0.4-0.1-0.5,0l-0.9,0.9c-0.1,0.1-0.1,0.3,0,0.5l1,1.5c0.1,0.1,0,0.3-0.1,0.3L3.5,44c-0.2,0-0.3,0.2-0.3,0.4v1.3   c0,0.2,0.1,0.3,0.3,0.4l1.7,0.3c0.2,0,0.2,0.2,0.1,0.3l-1,1.5c-0.1,0.1-0.1,0.4,0,0.5l0.9,0.9c0.1,0.1,0.3,0.1,0.5,0l1.5-1   c0.1-0.1,0.3,0,0.3,0.1L8,50.5c0,0.2,0.2,0.3,0.4,0.3h1.3c0.2,0,0.3-0.1,0.4-0.3l0.3-1.7c0-0.2,0.2-0.2,0.3-0.1l1.5,1   c0.1,0.1,0.4,0.1,0.5,0l0.9-0.9c0.1-0.1,0.1-0.3,0-0.5l-1-1.5c-0.1-0.1,0-0.3,0.1-0.3l1.7-0.3c0.2,0,0.3-0.2,0.3-0.4v-1.3   C14.8,44.2,14.6,44,14.5,44z M9,47.1c-1.2,0-2.1-0.9-2.1-2.1s0.9-2.1,2.1-2.1s2.1,0.9,2.1,2.1S10.1,47.1,9,47.1z"
   id="path15" />
</g>
<g
   id="g17">
</g>
<g
   id="g19">
</g>
<g
   id="g21">
</g>
<g
   id="g23">
</g>
<g
   id="g25">
</g>
<g
   id="g27">
</g>
<g
   id="g29">
</g>
<g
   id="g31">
</g>
<g
   id="g33">
</g>
<g
   id="g35">
</g>
<g
   id="g37">
</g>
<g
   id="g39">
</g>
<g
   id="g41">
</g>
<g
   id="g43">
</g>
<g
   id="g45">
</g>
<rect
   style="color:#000000;fill:#3e3e3e;fill-opacity:1;stroke:none;marker:none;visibility:visible;display:inline;overflow:visible;enable-background:accumulate"
   id="rect3028"
   width="9.1192045"
   height="10.039978"
   x="4.4536428"
   y="3.980011"
   rx="0.27514815"
   ry="0.22240436" /><rect
   style="color:#000000;fill:#dcdcdc;fill-opacity:1;fill-rule:nonzero;stroke:none;marker:none;visibility:visible;display:inline;overflow:visible;enable-background:accumulate"
   id="rect3030"
   width="6.6965518"
   height="0.5"
   x="4.4544621"
   y="4.3424602"
   rx="0"
   ry="0" /><rect
   ry="0"
   rx="0"
   y="6.3424602"
   x="4.4544621"
   height="0.5"
   width="4.9177675"
   id="rect3040"
   style="color:#000000;fill:#dcdcdc;fill-opacity:1;fill-rule:nonzero;stroke:none;marker:none;visibility:visible;display:inline;overflow:visible;enable-background:accumulate" /><rect
   style="color:#000000;fill:#dcdcdc;fill-opacity:1;fill-rule:nonzero;stroke:none;marker:none;visibility:visible;display:inline;overflow:visible;enable-background:accumulate"
   id="rect3042"
   width="7.4952264"
   height="0.5"
   x="4.4544621"
   y="8.3424597"
   rx="0"
   ry="0" /><rect
   ry="0"
   rx="0"
   y="10.34246"
   x="4.4544621"
   height="0.5"
   width="8.796216"
   id="rect3044"
   style="color:#000000;fill:#dcdcdc;fill-opacity:1;fill-rule:nonzero;stroke:none;marker:none;visibility:visible;display:inline;overflow:visible;enable-background:accumulate" /><rect
   style="color:#000000;fill:#dcdcdc;fill-opacity:1;fill-rule:nonzero;stroke:none;marker:none;visibility:visible;display:inline;overflow:visible;enable-background:accumulate"
   id="rect3046"
   width="3.4788337"
   height="0.5"
   x="4.4544621"
   y="12.34246"
   rx="0"
   ry="0" /><rect
   style="color:#000000;fill:#3e3e3e;fill-opacity:1;fill-rule:nonzero;stroke:#808080;stroke-width:0.2;stroke-miterlimit:4;stroke-dasharray:none;marker:none;visibility:visible;display:inline;overflow:visible;enable-background:accumulate"
   id="rect3008"
   width="9.9249296"
   height="5.3323655"
   x="4.0875363"
   y="25.033817" /><path
   sodipodi:type="star"
   style="color:#000000;fill:#3e3e3e;fill-opacity:1;fill-rule:nonzero;stroke:#3e3e3e;stroke-width:0.49941217999999998;marker:none;visibility:visible;display:inline;overflow:visible;enable-background:accumulate;stroke-linejoin:round;stroke-miterlimit:4;stroke-dasharray:none;stroke-opacity:1;stroke-linecap:round"
   id="path3778"
   sodipodi:sides="3"
   sodipodi:cx="-21.3125"
   sodipodi:cy="43.5625"
   sodipodi:r1="6.5135074"
   sodipodi:r2="5.6408629"
   sodipodi:arg1="0.52359878"
   sodipodi:arg2="1.5707963"
   inkscape:flatsided="true"
   inkscape:rounded="0"
   inkscape:randomized="0"
   d="m -15.671637,46.819254 -11.281726,0 5.640863,-9.770261 z"
   transform="matrix(0,0.80094162,-0.80094162,0,42.697139,80.070068)" /></svg>